<?xml version="1.0" standalone="no"?>
<!DOCTYPE svg PUBLIC "-//W3C//DTD SVG 20010904//EN"
 "http://www.w3.org/TR/2001/REC-SVG-20010904/DTD/svg10.dtd">
<svg version="1.0" xmlns="http://www.w3.org/2000/svg"
 width="519.000000pt" height="165.000000pt" viewBox="0 0 519.000000 165.000000"
 preserveAspectRatio="xMidYMid meet">
<metadata>
Created by potrace 1.15, written by Peter Selinger 2001-2017
</metadata>
<g transform="translate(0.000000,165.000000) scale(0.100000,-0.100000)"
fill="#000000" stroke="none">
<path d="M1014 1634 c-51 -18 -106 -72 -132 -128 -11 -22 -25 -77 -32 -121 -6
-44 -13 -85 -15 -92 -3 -9 -20 -6 -62 9 -82 30 -282 37 -373 13 -106 -27 -169
-64 -245 -140 -119 -118 -160 -233 -153 -424 7 -174 50 -266 163 -347 136 -97
398 -110 581 -29 l54 24 48 -29 c85 -54 226 -62 347 -20 48 17 53 17 85 0 75
-38 241 -33 338 10 l45 20 76 -27 c67 -24 91 -27 201 -28 126 0 201 16 279 59
22 12 29 11 61 -10 77 -51 247 -65 365 -29 33 9 46 9 75 -3 19 -8 69 -17 110
-19 l75 -6 1 -71 c0 -119 61 -200 173 -233 93 -27 301 -2 344 41 8 8 17 41 21
73 3 32 11 93 17 136 11 74 12 77 38 77 42 0 131 27 198 60 l64 32 40 -37 c47
-42 73 -53 153 -66 69 -12 215 3 275 27 36 14 43 14 102 -6 76 -26 207 -31
287 -11 44 11 58 11 85 0 45 -19 208 -17 277 4 129 38 198 115 207 230 6 74
-22 152 -68 191 l-29 24 52 372 52 372 -34 29 c-72 60 -137 84 -238 87 -183 7
-273 -63 -307 -240 -7 -38 -15 -70 -16 -72 -2 -1 -35 -7 -74 -14 -38 -6 -80
-15 -92 -18 -20 -6 -21 -4 -12 37 25 109 -33 228 -136 282 -62 32 -174 35
-249 7 -119 -45 -195 -162 -184 -280 7 -68 -14 -76 -108 -44 -77 26 -187 31
-264 11 -36 -10 -55 -9 -95 1 -54 15 -214 10 -274 -7 -24 -8 -48 -6 -89 4
-106 28 -217 17 -283 -28 l-34 -23 -59 31 c-55 28 -67 30 -165 30 -58 0 -133
-6 -166 -13 -52 -12 -68 -11 -120 2 -67 18 -206 21 -284 6 -28 -5 -81 -21
-116 -35 -64 -26 -65 -26 -92 -7 -55 37 -96 47 -199 47 l-100 0 14 104 14 105
-33 28 c-19 15 -59 40 -89 55 -47 24 -69 28 -155 30 -70 2 -112 -2 -141 -13z
m197 -156 c32 -9 39 -16 39 -37 0 -14 -16 -143 -35 -285 -20 -142 -34 -263
-32 -269 2 -6 21 14 42 44 70 97 153 196 179 213 53 34 172 29 211 -10 17 -18
20 -76 5 -105 -9 -15 -22 -19 -65 -19 -53 0 -54 0 -109 -62 -31 -35 -56 -70
-56 -78 0 -8 27 -63 61 -122 l60 -108 44 0 c50 0 67 -18 58 -62 -10 -55 -78
-87 -184 -88 -50 0 -72 5 -90 19 -13 10 -55 82 -94 160 -39 80 -72 135 -76
128 -3 -6 -14 -76 -24 -154 -20 -161 -14 -153 -120 -153 -69 0 -100 16 -110
58 -7 34 100 851 117 887 23 51 96 68 179 43z m2994 -2 c39 -16 55 -42 55 -86
0 -74 -49 -115 -137 -115 -48 0 -58 4 -80 29 -21 25 -24 37 -20 73 10 87 97
134 182 99z m775 1 c25 -9 35 -18 33 -32 -1 -11 -25 -190 -53 -397 -29 -207
-50 -384 -47 -393 5 -10 20 -15 51 -15 51 0 68 -17 59 -62 -11 -56 -78 -87
-191 -88 -64 0 -76 3 -97 25 -18 17 -25 35 -25 61 l0 37 -29 -40 c-36 -50 -89
-76 -169 -81 -83 -6 -146 13 -192 57 -46 44 -60 89 -60 201 0 306 197 473 466
395 19 -6 21 1 38 126 18 143 34 190 69 207 30 14 104 14 147 -1z m-4258 -332
c61 -21 122 -83 142 -142 9 -27 16 -80 16 -123 0 -219 -125 -363 -336 -389
-265 -32 -410 101 -375 344 24 170 114 275 274 320 66 19 213 13 279 -10z
m1460 1 c55 -26 74 -85 41 -124 -17 -19 -23 -20 -81 -11 -171 28 -262 -49
-262 -221 0 -74 21 -117 67 -137 38 -16 71 -14 209 13 28 5 32 3 42 -26 9 -24
8 -39 -2 -64 -25 -60 -100 -88 -237 -88 -219 0 -315 88 -312 288 3 251 168
402 424 390 43 -2 92 -11 111 -20z m815 2 l30 -13 -28 -200 c-16 -110 -28
-221 -29 -247 l0 -48 45 0 c38 0 47 -4 56 -24 15 -33 -6 -74 -51 -100 -27 -16
-57 -22 -136 -24 -101 -4 -101 -4 -123 24 -18 23 -21 36 -16 69 l6 40 -37 -43
c-54 -64 -103 -85 -204 -89 -99 -5 -140 11 -177 66 -31 46 -30 99 7 296 16 88
30 161 30 162 0 1 -19 3 -42 5 l-43 3 0 44 c0 68 29 85 160 89 85 4 110 1 130
-12 32 -21 32 -31 -6 -268 -37 -239 -37 -242 53 -236 54 4 64 8 92 39 30 33
32 41 54 214 25 190 41 241 82 263 29 15 102 10 147 -10z m711 -5 c82 -39 118
-129 110 -279 -8 -171 -91 -284 -251 -342 -23 -8 -87 -18 -142 -21 l-100 -6
-22 -160 c-12 -88 -22 -161 -22 -162 -4 -10 -121 -13 -152 -4 -43 13 -59 35
-59 81 0 26 80 648 95 737 6 31 5 32 -37 35 -36 3 -44 7 -46 27 -11 78 43 110
184 111 115 0 127 -8 123 -78 -4 -59 3 -66 21 -22 16 38 72 88 108 96 15 3 32
7 37 10 20 7 121 -8 153 -23z m450 1 c30 -20 29 -50 -8 -289 -17 -107 -28
-200 -25 -205 3 -6 26 -10 50 -10 40 0 45 -3 51 -26 19 -73 -41 -115 -173
-122 -101 -5 -140 8 -159 54 -16 37 -11 91 31 319 14 77 25 143 25 147 0 4
-19 8 -42 10 -36 3 -44 7 -46 27 -11 78 43 110 183 111 66 0 97 -4 113 -16z"/>
<path d="M4590 1013 c-35 -13 -81 -70 -95 -117 -19 -64 -19 -178 0 -215 17
-35 32 -41 95 -41 81 0 88 12 110 180 29 213 31 200 -37 199 -32 0 -65 -3 -73
-6z"/>
<path d="M495 1008 c-72 -39 -105 -112 -105 -230 0 -79 18 -124 56 -138 82
-31 165 15 199 109 18 52 20 179 3 216 -22 48 -103 71 -153 43z"/>
<path d="M3445 1011 c-43 -18 -52 -43 -75 -203 -12 -86 -19 -162 -15 -167 10
-17 96 -12 140 8 69 31 98 81 110 187 13 114 -27 185 -104 183 -20 0 -45 -4
-56 -8z"/>
</g>
</svg>
